<svg id="Capa_1" enable-background="new 0 0 500.72 500.72" height="512" viewBox="0 0 500.72 500.72" width="512" xmlns="http://www.w3.org/2000/svg"><g><path d="m132.595 233.22-8.13 9.42c-20.76 24.05-33.24 52.64-36.97 82.39l3.302 20.24 18.917 11.078s8.581-12.718 8.571-12.718c.01-4.73.29-9.45.85-14.15 2.06-17.35 7.96-34.05 17.28-49.18l2.902-10.017 9.021-37.063z" fill="#fddeb0"/><g fill="#fdd79b"><path d="m129.825 396.29c-7.66-16.74-11.58-34.7-11.54-52.66h-.01l-30.78-18.6c-3.55 28.12.73 57.27 13.24 84.59l20.807 24.57 22.643-13.87c-5.6-7.38-10.43-15.44-14.36-24.03z"/><path d="m242.655 468.72c-19.19 0-37.65-4.14-54.23-12.11v.01l-17.899-4.485-20.36 6.265-2.681 10.32c18.53 14.27 40.22 24.2 63.69 28.89l25.13-3.08 12.05-25.81z"/><path d="m379.449 408.905-13.884-2.265c-9.52 16.66-22.6 30.82-38.28 41.39-4.79 3.23-9.8 6.1-15 8.58l-18.7 10.165-4.94 19.29 13.53 8.465c28.41-8.2 53.65-24.28 73.08-46.54l7.958-15.09z"/><path d="m295.745 149.33-22.13-22.51-21.622 19.544c.64 1.5 8.322 10.896 9.442 12.186l49.97 57.92 38.19 26.018 7.98-21.488z"/></g><path d="m248.705 99.69-43.74 49.64-25.45 29.5-14.405 32.309 6.022 16.613 14.103-7.922 86.54-103.55z" fill="#fddeb0"/><g id="XMLID_226_"><g><path d="m265.256 0h-29.802c-2.214 0-4.009 1.795-4.009 4.009v54.521l5.676 8.732s26.176-14.638 26.176-13.777 5.968-27.626 5.968-27.626v-21.85c0-2.214-1.795-4.009-4.009-4.009z" fill="#fdd79b"/><path d="m269.265 25.86v109.26h-37.82v-76.59z" fill="#fddeb0"/></g></g><g><path d="m284.188 154.343h-67.666c-8.769 0-15.877-7.108-15.877-15.877 0-8.769 7.108-15.877 15.877-15.877h67.666c8.769 0 15.877 7.108 15.877 15.877 0 8.768-7.109 15.877-15.877 15.877z" fill="#fccd7f"/><path d="m284.188 122.589h-67.666c-8.769 0-15.877-7.108-15.877-15.877 0-8.769 7.108-15.877 15.877-15.877h67.666c8.769 0 15.877 7.108 15.877 15.877 0 8.768-7.109 15.877-15.877 15.877z" fill="#fdd79b"/><path d="m236.488 138.466c0-8.769 7.108-15.877 15.877-15.877h-35.844c-8.769 0-15.877 7.108-15.877 15.877 0 8.769 7.108 15.877 15.877 15.877h35.844c-8.768 0-15.877-7.109-15.877-15.877z" fill="#fbc56d"/><path d="m236.488 106.712c0-8.769 7.108-15.877 15.877-15.877h-35.844c-8.769 0-15.877 7.108-15.877 15.877s7.108 15.877 15.877 15.877h35.844c-8.768 0-15.877-7.109-15.877-15.877z" fill="#fccd7f"/><g id="XMLID_228_"><g><path d="m401.385 282.32s-13.454-22.674-14.313-22.435c-.86.238-19.942-.002-19.942-.002l-7.414 13.497c11.98 16.88 19.48 36.06 21.86 56.1.35 2.97.6 5.95.73 8.93l4.767 35.253 16.076 7.156 9.838-15.759h.01c3.868-28.2-.132-56.71-11.612-82.74z" fill="#fdd79b"/><g fill="#fddeb0"><path d="m401.385 282.32-41.67-8.94c-2.39-3.37-4.96-6.65-7.7-9.83l-40.61-47.08 46.17 4.53 18.67 21.64c10.53 12.21 18.93 25.58 25.14 39.68z"/><path d="m365.565 406.64c1.92-3.35 3.7-6.8 5.32-10.35 8.41-18.36 12.3-38.2 11.42-57.88l.13-.01 30.55 26.66h.01c-2.07 15.09-6.39 30.08-13.02 44.56-6.52 14.23-14.87 27.09-24.72 38.37z"/><path d="m258.055 468.72c19.19 0 37.65-4.14 54.23-12.11v.01l-10.11 37.91c-14.04 4.06-28.85 6.19-44.12 6.19h-15.4c-10.76 0-21.29-1.06-31.48-3.11l37.18-28.89z"/></g><path d="m179.515 178.83 5.72 41-36.54 43.72c-4.59 5.32-8.69 10.92-12.28 16.75l-3.82-47.08z" fill="#fdd79b"/><path d="m100.735 409.62 43.45 10.7c8.19 10.8 18.05 20.17 29.24 27.71 4.79 3.23 9.8 6.1 15 8.58v.01l-40.94 12.1c-19.68-15.15-35.81-35.2-46.75-59.1z" fill="#fddeb0"/></g></g></g></g></svg>